HIERARCHY
ROOT Hips
{
	OFFSET -0.001795 -0.223333 0.028219
	CHANNELS 6 Xposition Yposition Zposition Zrotation Yrotation Xrotation 
	JOINT LeftUpLeg
	{
		OFFSET 0.069520 -0.091406 -0.006815
		CHANNELS 3 Zrotation Yrotation Xrotation
		JOINT LeftLeg
		{
			OFFSET 0.034277 -0.375199 -0.004496
			CHANNELS 3 Zrotation Yrotation Xrotation
			JOINT LeftFoot
			{
				OFFSET -0.013596 -0.397961 -0.043693
				CHANNELS 3 Zrotation Yrotation Xrotation
				JOINT LeftToe
				{
					OFFSET 0.026358 -0.055791 0.119288
					CHANNELS 3 Zrotation Yrotation Xrotation
					End Site
					{
						OFFSET 0.000000 0.000000 0.000000
					}
				}
			}
		}
	}
	JOINT RightUpLeg
	{
		OFFSET -0.067670 -0.090522 -0.004320
		CHANNELS 3 Zrotation Yrotation Xrotation
		JOINT RightLeg
		{
			OFFSET -0.038290 -0.382569 -0.008850
			CHANNELS 3 Zrotation Yrotation Xrotation
			JOINT RightFoot
			{
				OFFSET 0.015774 -0.398415 -0.042312
				CHANNELS 3 Zrotation Yrotation Xrotation
				JOINT RightToe
				{
					OFFSET -0.025372 -0.048144 0.123348
					CHANNELS 3 Zrotation Yrotation Xrotation
					End Site
					{
						OFFSET 0.000000 0.000000 0.000000
					}
				}
			}
		}
	}
	JOINT Spine
	{
		OFFSET -0.002533 0.108963 -0.026696
		CHANNELS 3 Zrotation Yrotation Xrotation
		JOINT Spine1
		{
			OFFSET 0.005487 0.135180 0.001092
			CHANNELS 3 Zrotation Yrotation Xrotation
			JOINT Spine2
			{
				OFFSET 0.001457 0.052922 0.025425
				CHANNELS 3 Zrotation Yrotation Xrotation
				JOINT Neck
				{
					OFFSET -0.002778 0.213870 -0.042857
					CHANNELS 3 Zrotation Yrotation Xrotation
					JOINT Head
					{
						OFFSET 0.005152 0.064970 0.051349
						CHANNELS 3 Zrotation Yrotation Xrotation
						End Site
						{
							OFFSET 0.000000 0.000000 0.000000
						}
					}
				}
				JOINT LeftShoulder
				{
					OFFSET 0.078845 0.121749 -0.034090
					CHANNELS 3 Zrotation Yrotation Xrotation
					JOINT LeftArm
					{
						OFFSET 0.090977 0.030469 -0.008868
						CHANNELS 3 Zrotation Yrotation Xrotation
						JOINT LeftForeArm
						{
							OFFSET 0.259612 -0.012772 -0.027456
							CHANNELS 3 Zrotation Yrotation Xrotation
							JOINT LeftHand
							{
								OFFSET 0.249234 0.008986 -0.001171
								CHANNELS 3 Zrotation Yrotation Xrotation
								End Site
								{
									OFFSET 0.000000 0.000000 0.000000
								}
							}
						}
					}
				}
				JOINT RightShoulder
				{
					OFFSET -0.081759 0.118833 -0.038615
					CHANNELS 3 Zrotation Yrotation Xrotation
					JOINT RightArm
					{
						OFFSET -0.096012 0.032551 -0.009143
						CHANNELS 3 Zrotation Yrotation Xrotation
						JOINT RightForeArm
						{
							OFFSET -0.253742 -0.013329 -0.021401
							CHANNELS 3 Zrotation Yrotation Xrotation
							JOINT RightHand
							{
								OFFSET -0.255298 0.007772 -0.005559
								CHANNELS 3 Zrotation Yrotation Xrotation
								End Site
								{
									OFFSET 0.000000 0.000000 0.000000
								}
							}
						}
					}
				}
			}
		}
	}
}
MOTION
Frames: 7
Frame Time: 0.050000
0.321016 0.908392 0.493303 0.856087 27.765841 4.273767 1.934815 -0.498316 -5.744430 -3.014955 -0.363741 11.315350 7.736037 8.725433 -9.845896 0.000000 0.000000 0.000000 -7.240828 -0.748508 -22.918186 -3.053070 -5.688077 60.513081 -4.961749 -12.259270 2.694747 0.000000 0.000000 0.000000 3.056722 -0.765338 8.010429 1.990097 -0.922594 -0.627117 -4.785500 7.895769 5.407292 8.813934 0.574295 -27.996017 0.000000 0.000000 0.000000 -22.924895 -7.255251 -5.929209 -39.885883 5.531051 -4.097679 -8.412164 -47.444756 2.074442 0.000000 0.000000 0.000000 19.991715 0.430952 4.548112 50.618209 9.379254 -2.181474 22.266904 53.164667 17.703104 0.000000 0.000000 0.000000 
0.347899 0.904963 0.520037 0.496692 28.245673 2.685111 1.128438 -0.192459 -1.953332 -2.467470 -0.359508 10.247529 7.143535 5.343338 -12.241594 0.000000 0.000000 0.000000 -6.103956 -1.280932 -30.611757 -4.141120 -4.793742 62.668611 -3.686180 -8.860410 -0.376398 0.000000 0.000000 0.000000 3.689035 -0.970150 9.299865 2.476725 -1.014750 -1.558245 -5.477318 6.380226 6.347438 10.119878 -0.322484 -27.286572 0.000000 0.000000 0.000000 -23.481351 -8.600150 -5.075117 -39.922469 3.932860 -3.608617 -4.821985 -48.642665 0.631371 0.000000 0.000000 0.000000 20.446111 -0.878295 3.573548 50.961550 7.657630 -2.989508 20.093461 50.981552 15.596387 0.000000 0.000000 0.000000 
0.374899 0.901252 0.554359 0.043793 27.621179 2.127613 0.614404 0.024329 1.305620 -2.157612 -0.371075 10.058103 7.685722 5.292700 -14.075184 0.000000 0.000000 0.000000 -3.792662 -1.175700 -37.030712 -3.230522 -3.453610 55.828640 -3.393436 -7.852961 -1.707025 0.000000 0.000000 0.000000 4.233200 -1.040414 9.441115 2.596411 -1.005514 -2.025467 -5.603330 5.379782 6.437038 10.091336 -0.517588 -26.996859 0.000000 0.000000 0.000000 -23.507439 -7.341381 -5.265033 -40.235911 1.766252 -3.148734 -4.429391 -51.589148 0.580997 0.000000 0.000000 0.000000 20.605351 -2.278727 2.388274 51.043631 5.661878 -3.746742 19.195450 48.201514 13.934476 0.000000 0.000000 0.000000 
0.402497 0.895659 0.596496 -0.649111 28.506860 0.768876 0.254052 0.198328 5.337573 -1.323497 -0.525429 10.556643 7.747882 3.205227 -16.418383 0.000000 0.000000 0.000000 -2.940190 -1.456115 -40.492897 0.355952 -3.482673 43.204827 -2.951037 -7.017886 1.917394 0.000000 0.000000 0.000000 5.087449 -1.127064 9.426206 3.350044 -1.404680 -1.650429 -5.880855 4.231839 5.405550 9.330569 -0.838334 -23.567333 0.000000 0.000000 0.000000 -23.934475 -7.518345 -5.037774 -40.314739 1.111340 -2.930722 -5.788547 -56.169199 1.364677 0.000000 0.000000 0.000000 20.027837 -3.540170 1.223242 50.895887 1.494190 -5.119924 19.561221 46.362192 13.198218 0.000000 0.000000 0.000000 
0.430930 0.887271 0.646471 -0.398514 29.310341 0.358920 -0.808963 0.383332 9.686314 -0.124743 -0.619218 9.749425 8.108479 3.503309 -16.842361 0.000000 0.000000 0.000000 -3.422149 -1.795272 -40.367116 2.870123 -2.589022 28.992639 -3.433624 -7.961069 5.034092 0.000000 0.000000 0.000000 4.864486 -0.969105 8.472206 3.884804 -1.632068 -1.799728 -5.562507 2.497124 5.599784 8.488038 -0.503396 -23.796500 0.000000 0.000000 0.000000 -23.471358 -7.052498 -4.662189 -41.476902 -0.882584 -2.626539 -8.765640 -60.362385 3.271732 0.000000 0.000000 0.000000 19.395877 -4.552912 0.184676 50.650688 -1.257347 -6.034718 20.368721 44.361467 12.645211 0.000000 0.000000 0.000000 
0.459706 0.875242 0.703027 -0.322927 30.747961 -0.200049 -0.490606 0.229346 14.282546 0.395300 -0.688693 9.743212 7.933635 1.261111 -18.513580 0.000000 0.000000 0.000000 -3.960501 -2.045005 -38.788237 2.886039 -1.487736 18.922812 -3.073135 -7.019359 6.684556 0.000000 0.000000 0.000000 5.058676 -0.756431 6.669889 4.456279 -1.955211 -1.481241 -5.873531 0.945559 5.598337 7.977264 -0.564381 -22.375078 0.000000 0.000000 0.000000 -23.596469 -7.067063 -4.462852 -41.673171 -2.979248 -1.996397 -10.875988 -64.665306 4.888288 0.000000 0.000000 0.000000 20.214572 -6.194990 -0.914090 50.096935 -4.835871 -7.362749 19.710345 41.934099 11.405036 0.000000 0.000000 0.000000 
0.487742 0.864688 0.763094 -0.473825 32.503792 -0.990448 0.746742 -0.289620 17.857335 0.501055 -0.821405 10.918419 7.808821 -0.879466 -20.120343 0.000000 0.000000 0.000000 -4.204887 -2.423665 -38.596213 2.366422 -1.305636 18.011174 -3.449227 -7.582014 8.430460 0.000000 0.000000 0.000000 5.700766 -0.600984 4.984144 5.664062 -2.604958 -1.186659 -7.420201 0.226969 5.748981 8.250072 -0.784993 -21.732807 0.000000 0.000000 0.000000 -23.203653 -7.817439 -4.086749 -42.395817 -6.419557 -0.892121 -9.428461 -68.664859 3.989522 0.000000 0.000000 0.000000 21.480598 -8.747292 -2.376772 48.450640 -7.426820 -8.108662 19.457463 40.572449 10.836836 0.000000 0.000000 0.000000 
